<svg xmlns="http://www.w3.org/2000/svg"   width="20pt" height="20pt" viewBox="0 0 20 20">
    <defs>
        <symbol id="off">
        <path style=" stroke:none;fill-rule:nonzero;fill:rgb(0%,0%,0%);fill-opacity:1;" d="M 13.667969 2.429688 C 13.246094 2.246094 12.753906 2.4375 12.570312 2.859375 C 12.382812 3.28125 12.578125 3.773438 13 3.957031 C 15.710938 5.140625 17.5 7.824219 17.5 10.832031 C 17.5 14.976562 14.140625 18.332031 10 18.332031 C 5.859375 18.332031 2.5 14.976562 2.5 10.832031 C 2.5 7.824219 4.289062 5.140625 7 3.957031 C 7.421875 3.773438 7.613281 3.28125 7.429688 2.859375 C 7.246094 2.4375 6.753906 2.246094 6.332031 2.429688 C 3.019531 3.878906 0.832031 7.15625 0.832031 10.832031 C 0.832031 15.894531 4.9375 20 10 20 C 15.0625 20 19.167969 15.894531 19.167969 10.832031 C 19.167969 7.15625 16.980469 3.875 13.667969 2.429688 Z M 13.667969 2.429688 "/>
        <path style=" stroke:none;fill-rule:nonzero;fill:rgb(0%,0%,0%);fill-opacity:1;" d="M 10 9.167969 C 10.460938 9.167969 10.832031 8.792969 10.832031 8.332031 L 10.832031 0.832031 C 10.832031 0.375 10.460938 0 10 0 C 9.539062 0 9.167969 0.375 9.167969 0.832031 L 9.167969 8.332031 C 9.167969 8.792969 9.539062 9.167969 10 9.167969 Z M 10 9.167969 "/>
        </symbol>
    </defs>
</svg> 